<?xml version="1.0" standalone="no"?>
<!DOCTYPE svg PUBLIC "-//W3C//DTD SVG 20010904//EN"
 "http://www.w3.org/TR/2001/REC-SVG-20010904/DTD/svg10.dtd">
<svg version="1.0" xmlns="http://www.w3.org/2000/svg"
 width="700.000000pt" height="700.000000pt" viewBox="0 0 700.000000 700.000000"
 preserveAspectRatio="xMidYMid meet">
<metadata>
Created by potrace 1.14, written by Peter Selinger 2001-2017
</metadata>
<g transform="translate(0.000000,700.000000) scale(0.100000,-0.100000)"
fill="#000000" stroke="none">
<path d="M3444 6715 c-4 -8 -12 -15 -20 -15 -10 0 -14 -12 -13 -42 3 -91 -1
-181 -7 -175 -4 3 -13 -1 -22 -9 -8 -9 -23 -13 -33 -11 -11 3 -19 1 -19 -4 0
-13 -37 -48 -44 -41 -3 3 -6 -7 -6 -21 0 -15 -4 -27 -10 -27 -14 0 -76 -63
-72 -73 1 -5 -4 -14 -12 -21 -8 -6 -16 -20 -18 -31 -2 -11 -10 -19 -17 -17 -8
2 -11 -12 -9 -45 1 -27 -3 -57 -9 -69 -10 -17 -9 -25 3 -42 10 -14 11 -22 4
-22 -6 0 -11 -10 -10 -22 4 -43 0 -46 -72 -59 -40 -7 -75 -13 -78 -14 -3 -1
-21 -5 -40 -9 -74 -16 -239 -70 -335 -109 -272 -111 -506 -267 -715 -477 -120
-120 -126 -126 -201 -225 -102 -133 -216 -330 -284 -490 -35 -83 -96 -284
-116 -379 -20 -101 -23 -118 -38 -241 -12 -94 -6 -433 8 -520 7 -38 14 -83 17
-100 3 -16 14 -70 25 -119 11 -48 22 -109 25 -135 12 -114 14 -110 -48 -109
-104 1 -98 4 -98 -55 l0 -52 70 0 c50 0 73 4 80 14 13 21 739 21 750 0 6 -10
27 -14 75 -13 48 1 68 -3 72 -13 3 -9 24 -13 64 -13 44 0 59 -4 59 -14 0 -10
12 -14 38 -14 57 0 62 -1 62 -15 0 -9 16 -12 50 -11 34 0 50 -3 50 -12 0 -7
12 -14 28 -16 16 -2 26 -8 24 -16 -1 -9 6 -13 20 -12 51 4 78 0 78 -14 0 -8 9
-12 25 -11 16 2 25 -2 25 -11 0 -10 12 -14 41 -14 30 0 40 -4 36 -13 -3 -9 13
-19 47 -31 83 -29 106 -40 106 -53 0 -7 9 -13 20 -13 10 0 23 -6 27 -13 4 -8
29 -19 55 -26 30 -9 50 -20 53 -32 7 -22 41 -43 55 -34 6 4 15 -8 22 -25 9
-28 15 -31 39 -28 16 3 29 1 29 -3 0 -4 11 -17 24 -30 32 -31 24 -49 -17 -39
-38 8 -87 33 -144 71 -23 16 -53 29 -67 29 -15 0 -26 6 -26 13 0 10 -14 13
-46 12 -30 -1 -48 4 -51 12 -3 7 -16 13 -29 13 -15 0 -24 6 -24 15 0 11 -11
15 -40 15 -27 0 -39 4 -37 13 1 7 -9 12 -23 13 -14 0 -24 6 -23 12 3 13 -11
17 -106 32 -36 5 -68 15 -72 22 -4 7 -27 13 -50 14 -22 1 -45 7 -49 14 -5 8
-38 12 -103 12 -67 0 -96 4 -94 12 1 6 -14 12 -35 14 -22 2 -38 9 -38 16 0 8
-20 12 -67 11 -38 -1 -86 2 -108 6 -36 6 -93 13 -209 25 -23 2 -127 6 -231 8
-177 4 -197 2 -280 -20 -117 -31 -251 -62 -294 -66 -27 -3 -35 -9 -38 -29 -1
-13 -10 -55 -19 -92 -18 -76 -4 -71 -129 -47 -97 20 -144 18 -151 -3 -3 -10
-16 -22 -29 -27 -34 -13 -41 -59 -16 -106 21 -38 21 -38 133 -61 62 -12 124
-24 138 -26 14 -3 115 -23 225 -46 110 -22 211 -42 225 -45 14 -2 72 -14 130
-26 58 -12 116 -24 130 -26 25 -5 508 -101 545 -109 11 -2 45 -9 75 -15 30 -6
66 -13 80 -16 14 -3 90 -18 170 -34 80 -16 156 -31 170 -34 76 -14 385 -78
385 -79 1 -1 9 -28 18 -59 35 -115 130 -225 251 -289 57 -31 60 -31 153 -25
137 10 165 15 182 30 9 8 30 17 46 20 22 5 43 25 78 71 26 36 52 65 57 65 6 0
10 9 10 19 0 10 6 21 14 24 7 3 16 24 20 46 4 26 12 41 21 42 8 1 18 2 23 3
29 7 71 16 92 20 14 2 81 15 150 30 69 14 136 27 150 30 14 3 61 12 104 21 44
8 93 18 110 21 17 2 47 9 66 14 19 5 49 11 65 13 17 3 75 14 130 26 55 11 111
22 125 25 14 3 72 14 130 26 58 12 119 24 135 26 17 3 71 14 120 25 50 11 106
22 125 25 19 3 51 9 70 14 19 5 51 12 70 15 19 3 55 10 80 15 25 5 56 12 70
14 14 3 72 14 130 26 58 12 116 23 130 26 37 7 121 23 150 30 14 3 36 7 50 10
93 19 188 73 191 107 0 7 2 21 4 31 5 28 -20 71 -55 96 -34 24 -80 28 -132 12
-18 -6 -53 -13 -78 -16 -25 -4 -46 -11 -48 -16 -11 -33 -32 3 -65 110 -36 114
-39 120 -65 121 -15 1 -38 2 -52 4 -14 1 -70 6 -125 10 -55 4 -108 8 -118 9
-10 0 -22 7 -26 15 -7 11 -60 14 -277 13 -250 0 -341 -3 -469 -19 -27 -3 -59
-7 -70 -8 -42 -4 -121 -17 -155 -25 -19 -5 -48 -11 -64 -14 -67 -12 -228 -62
-329 -103 -64 -25 -125 -43 -148 -43 -25 0 -38 -4 -36 -12 1 -7 -20 -19 -47
-28 -28 -9 -52 -22 -54 -28 -2 -7 -19 -12 -37 -12 -23 0 -34 -5 -37 -17 -3
-10 -22 -24 -44 -31 -64 -22 -107 -44 -136 -67 -25 -21 -97 -31 -90 -12 1 4 2
11 2 16 0 5 14 12 30 16 17 4 38 18 48 32 35 52 60 71 99 78 33 5 44 12 53 36
9 20 19 29 36 29 13 0 27 8 33 17 5 10 13 14 17 10 4 -4 15 0 25 9 9 8 26 16
37 17 11 0 20 6 19 12 -1 5 10 11 24 13 18 2 33 15 48 43 12 21 30 39 39 40 9
0 24 2 32 3 13 3 115 17 145 21 6 0 9 6 8 13 -2 7 8 12 22 12 16 0 25 6 25 15
0 11 12 15 50 15 35 0 52 5 56 14 3 8 14 13 25 11 12 -2 19 2 19 11 0 14 16
17 88 16 20 0 35 5 39 14 3 9 21 14 54 14 33 0 49 4 49 13 0 10 27 13 113 12
68 0 131 5 162 14 82 23 408 20 666 -5 31 -3 73 -7 93 -8 l36 -1 0 52 c0 35
-4 53 -12 54 -18 2 -88 7 -118 8 -19 1 -21 4 -11 10 8 5 24 7 36 5 26 -5 28 0
44 116 62 441 -9 941 -196 1379 -210 492 -572 904 -1017 1156 -194 110 -430
200 -626 239 -74 15 -133 26 -134 26 -8 0 2 72 12 81 15 16 16 45 2 54 -5 3
-10 19 -10 36 0 19 -5 29 -15 29 -11 0 -15 9 -13 31 2 21 -3 34 -15 40 -10 6
-14 15 -11 21 4 6 0 16 -8 22 -9 6 -18 20 -20 31 -2 11 -10 19 -16 18 -7 -2
-12 4 -12 12 0 8 -7 15 -16 15 -8 0 -12 5 -9 10 3 6 1 10 -5 10 -6 0 -21 11
-34 25 -13 14 -29 25 -35 25 -7 0 -9 5 -6 10 3 6 0 10 -8 10 -8 0 -18 7 -21
16 -4 11 -13 14 -27 11 -18 -5 -20 -1 -20 41 -1 170 -3 184 -27 193 -17 6 -24
5 -28 -6z"/>
</g>
</svg>
