<svg xmlns="http://www.w3.org/2000/svg" xmlns:xlink="http://www.w3.org/1999/xlink" width="500" height="500" viewBox="0 0 500 500">
  <defs>
    <style>
      .cls-1, .cls-8 {
        fill: #fff;
      }

      .cls-1, .cls-10, .cls-11, .cls-12, .cls-13, .cls-2, .cls-3, .cls-4, .cls-5, .cls-7 {
        fill-rule: evenodd;
      }

      .cls-2 {
        fill: #181d41;
      }

      .cls-3 {
        fill: url(#linear-gradient);
      }

      .cls-4 {
        fill: url(#linear-gradient-2);
      }

      .cls-10, .cls-11, .cls-12, .cls-13, .cls-5 {
        fill: #ffd100;
      }

      .cls-6 {
        fill: #493c3f;
      }

      .cls-7 {
        fill: #ff4029;
      }

      .cls-9 {
        fill: #f2c803;
      }

      .cls-10, .cls-11, .cls-12, .cls-13 {
        stroke: #ffd100;
      }

      .cls-10 {
        stroke-width: 10.14px;
      }

      .cls-11 {
        stroke-width: 7.41px;
      }

      .cls-12 {
        stroke-width: 1.96px;
      }

      .cls-13 {
        stroke-width: 4.68px;
      }
    </style>
    <linearGradient id="linear-gradient" x1="251" y1="316.906" x2="251" y2="77" gradientUnits="userSpaceOnUse">
      <stop offset="0" stop-color="#361c47"/>
      <stop offset="0.34" stop-color="#2a1c44"/>
      <stop offset="0.348" stop-color="#2a1c44"/>
      <stop offset="1" stop-color="#0a1f3f"/>
    </linearGradient>
    <linearGradient id="linear-gradient-2" x1="250.781" y1="281.125" x2="250.781" y2="71.156" xlink:href="#linear-gradient"/>
  </defs>
  <path class="cls-1" d="M195,254.929H304a15,15,0,0,1,15,15v12.983a15,15,0,0,1-15,15H195a15,15,0,0,1-15-15V269.929A15,15,0,0,1,195,254.929Z"/>
  <path class="cls-1" d="M310.751,249.4l47.918-6.322A15,15,0,0,1,375.5,255.982l1.652,12.512a15,15,0,0,1-12.907,16.833l-47.918,6.323A15,15,0,0,1,299.5,278.741l-1.652-12.512A15,15,0,0,1,310.751,249.4Z"/>
  <path id="Dome2_1" data-name="Dome2 1" class="cls-2" d="M271.316,90.719l10.4-.131,1.733,3.528,3.466-1.819v1.775l3.465-.044V95.8l6.932-.088v1.775l5.2-.066V99.2l8.665,1.666v1.775l6.931,1.687v1.776l3.466-.044v1.775l3.466-.044v1.775l3.466-.043V111.3l3.465-.044q0.867,1.764,1.733,3.528l3.466-.043q0.865,1.764,1.733,3.528l3.465-.044,3.466,5.282,3.466-.044,6.931,8.788,3.466-.043v1.775l5.2,3.484v3.551l10.4,8.744v3.551l5.2,3.484q0.865,3.54,1.732,7.079l3.466,1.731q0.867,3.54,1.733,7.079l1.733-.022v3.551l1.733-.022q1.732,5.3,3.466,10.607l1.732-.022V192.1l1.733-.022v3.55l1.733-.022v5.326l1.733-.022v3.55l1.733-.022v10.651l1.733-.022v10.651l1.733-.022v17.752l1.732-.022v12.427l-1.732.021q-0.867,14.211-1.733,28.425c-9.8-.773-22.479-1.473-34.658-1.337q-0.865-2.652-1.733-5.3l-8.664.11v1.775l-1.733.022-3.465-5.282-17.329-1.556c-2.666,4.367-2.122,1.131-5.2,3.616l-1.733,3.572-1.732.022q-0.867,4.449-1.733,8.9l-1.733.022v-1.776l-12.13.154v1.775c-1.973,2.047-.691.015-1.733,3.572l-20.8-1.512c-0.594.236-2.629,6.193-8.664,3.66l-3.466-5.282-12.13.153v-1.775l1.733-.022c1.974-2.046.006-.707,3.466-1.819v-8.876l-3.466.044V268.28c0.348-.891,5.916-2.493,3.466-8.919l-3.466-1.732q-0.865-5.315-1.733-10.629l-6.931-3.463V225.786c-0.008-13.74-.472-38.951-10.4-40.7a39.177,39.177,0,0,1-6.932,1.863c-0.613,7.062-3.587,12.3-5.2,17.817v49.705l-6.931,3.638v7.1l-1.733.021V277.66l-1.733.022c-1.508,2.777-1.405,4.314-1.733,8.9l5.2,1.71v5.325c-5.37,1.419-6.539,3.736-12.13,5.479v1.775c-2.671.752-4.6-5.634-8.664-1.665v-5.326l-1.733.022c-3-3.641-2.281-4.574-8.665-5.216-2.664,3.1-8.114,3.859-12.13,5.479-0.063-8.442-1.957-12.491-8.664-14.092-6.7-7.907-15.278-1.516-20.8,2.038-2.718-.617-4.808-5.1-5.2-5.26l-10.4,1.907q-0.867,3.559-1.733,7.122c-14.453.046-31.541-.06-43.322,2.323-0.421-12.334-7.026-37.149-3.466-49.661l1.733-.022v-8.876l1.733-.022V218.968l1.733-.022v-7.1l1.733-.021v-7.1l1.733-.022q0.865-5.335,1.733-10.673l1.732-.022q0.867-3.561,1.733-7.122l1.733-.022v-3.551l1.733-.022v-5.325l3.466-1.819q0.865-3.561,1.733-7.123L117.09,169q0.867-2.673,1.733-5.347l3.466-1.819v-3.55l5.2-3.616v-3.551l10.4-9.007q0.865-2.673,1.733-5.347l3.466-.044q4.331-5.38,8.664-10.761l3.466-.043,3.465-5.37,5.2-1.841v-3.55l8.664-1.885q0.867-1.785,1.733-3.572l8.665-1.884,1.732-3.573,5.2-.065V102.4l3.466-.043V100.58l5.2-.065V98.74L202,98.7V96.921l8.664-.109q0.867-1.786,1.733-3.572l10.4-.131c2.465,6.73,1.817,18.883,1.733,28.38,3.568,4.951-10.939,24.237-13.863,30.353l-1.732.022v-5.325l-1.733.022v31.953l1.733-.022c1.073-1.076,26.369-4.067,29.458-2.147v1.775c1.973,2,.691,0,1.733,3.528,4.774,0.178,15.49,1.029,17.329-1.994V176.1l29.459-.373v7.1l3.465-.044V141.958l-3.465.044v8.876l-1.733.022v-3.55c-4.227-2.759-1.126-1.395-3.466-5.282l-1.733.022v-3.551l-3.466-1.731q-0.865-3.538-1.732-7.079L271.316,128V90.719Z"/>
  <path id="DOOOME_1" data-name="DOOOME 1" class="cls-3" d="M290.226,80.223v2h3v2l14.025,1v3c2.891,0.168,7.552,1.472,9.016,3,1.14,1.141.4,0,1,2h4.008v2l9.015,2,3.006,5.006,7.012,1,1,4c2.561,0.51,5.666,1.272,7.012,3v2l2,1v1h4.007v1c2.344,1.757,3.036,3.97,5.009,6.008l5.009,4.005v2h1q2,2.5,4.007,5.006h2v3h3v1h1c2.149,3.178-1.713,4.363,4.007,6.007v4.006c3.1,1.327,3.858,1.5,4.007,6.007,3.593,0.937,3.162,2.613,3.006,7.009l4.007,1,1,7.009,3.005,1,1,7.009h2v5.007h2l1,5.006h1v5.007h1v5.006h1v5.007h1v4h1v4.005h1V213.4c3.757,12.054,4.176,26.519,3,41.054h-2q-0.5,10.011-1,20.026h3q-0.5,1.5-1,3h-1c-2.908,4.665.652,5.24-8.014,5.007-2.725-2.408-8.843.149-13.023-1-8.169-2.248-21.029-1.008-28.05,1H340.314v2l-16.028,2v2l-10.018,1v2h-5.009v2h-6.01v2H298.24v2c-2.891.169-7.552,1.473-9.016,3-1.141,1.141-.4,0-1,2h-4.007c-0.827,3.2-1.181,2.906-5.009,3v2c-5.578.852-3.062,1.955-6.01,4.006h-2l-1,2-6.01,2v1c-3.885,1.345-7.116-1.335-9.016-2l-12.022-1v-1h-3v-1H236.13v-1h-8.014v-1c-1.141-1.141-.4,0-1-2l-7.012-1c-0.947-1.8-1.388-1.576-2-4l-7.012-2v-2l-7.013-1v-2l-12.021-2v-2l-7.012-1v-2h-9.016v-2h-5.009v-2a66.073,66.073,0,0,1-21.037-3H122.93v-1h-3.006v-1h-2v-1l-7.013-1v-1l-15.026,1-2-3h2q-0.5-10.013-1-20.026h-2c-0.61-6.018-1.7-14.047,0-20.026v-8.011a120.382,120.382,0,0,0,5.009-32.041h2v-5.007h2l1-9.011h2v-5.007h2l3.006-11.014h2v-4h2a34.725,34.725,0,0,0,1-7.009l4.007-1v-4c5.991-2.971,3.474-8.23,10.017-10.013v-4l14.025-12.016v-2l4.007-3,1-3h4.007l3-5.006c1.841-1.13,3.716.507,5.009-1v-2l3.006-2q0.5-1.5,1-3l9.016-2,1-2,4.007-1,1-2,6.011-2a73.9,73.9,0,0,1,40.07-12.016v-2l9.016-1v1h9.016c2.273-.19,3.86-1.83,7.013-1v1l15.026-1A117.126,117.126,0,0,0,290.226,80.223Z"/>
  <path id="SemiCircle_1" data-name="SemiCircle 1" class="cls-4" d="M97.457,280.742a158.217,158.217,0,0,1-8.9-53.238C89,140.044,160.484,70.041,248.213,71.149,337.007,72.29,403.7,143.959,412.035,231.7a165.069,165.069,0,0,1-1.984,49.422C298.269,280.753,197.694,280.742,97.457,280.742Z"/>
  <path id="bookBack_1" data-name="bookBack 1" class="cls-5" d="M452.978,329.55a251.464,251.464,0,0,0-29.245,6.828h-9.744c-12.771,4.118-29.587,6.2-42.244,10.242H362l0,1.707-19.491,1.707q0,0.854,0,1.707h-4.872l0,1.707h-9.744l0,1.707h-8.12l0,1.707h-8.12q0,0.853,0,1.707H301.89l0,1.707h-8.12l0,1.707c-6.049,2-8.972-.861-13,3.414h-1.624q-0.819,4.268-1.64,8.535h-1.624l-0.006,3.414h-1.624l-6.512,8.535c-2.722,1.972-3.692.017-6.5,3.414L243.365,391c-11.672-3.985-21.74-13.75-24.309-27.312L48.6,329.55c-1.528-3.075-2.244-2.688-3.235-6.828,1.853-1.945.647-.007,1.63-3.414,11.207-2.258,19.332.272,29.226,3.414H90.837c10.041,3.128,22.782,5.429,32.464,8.535l19.485,1.707q0,0.853,0,1.707h4.872l0,1.707h12.992l0,1.707h8.12l0,1.707h8.12l0,1.707h9.744c18.167,5.785,40.376,8.256,58.438,13.656,6.646,1.986,12.482-2.2,16.247-3.414H274.3l0-1.707h6.5l0-1.707h9.745l0-1.707h6.5l0-1.707h9.744l0-1.707h4.872q0-.854,0-1.707h12.992l0-1.707h8.12l0-1.707,16.243-1.707q0-.853,0-1.707h12.992c14.26-4.577,32.809-7.44,47.118-11.949h12.993l0-1.707h11.368c0-.569,0-1.139,0-1.707l13-1.708,0,1.708h1.624c0.026,0,.769-3.007,3.251-1.708l0,1.708q1.623,0.852,3.245,1.707Q453.8,325.281,452.978,329.55Z"/>
  <path id="Line_1" data-name="Line 1" class="cls-1" d="M132.541,284.457l0.918-4.914,91,17-0.918,4.915Z"/>
  <path class="cls-1" d="M247.766,173.119c5.1,0.238,9.234,6.8,9.234,14.656s-4.134,14.032-9.234,13.794-9.235-6.8-9.235-14.656S242.666,172.881,247.766,173.119Z"/>
  <path id="LogoSmoke_1" data-name="LogoSmoke 1" class="cls-1" d="M258.92,238.839l5.345,1.906,1.782,5.719h1.782v7.625q1.782,0.952,3.563,1.906c1.48,5.763-6.618,8.853-3.563,17.155h1.782c1.51,2.969,1.482,4.6,1.781,9.531l-5.345,1.906v1.906H278.52l3.563,5.719c6.248,2.79,8.242-3.539,8.909-3.813,4.091-1.677,8.746.936,10.691,1.907v1.906h1.782v-1.906h8.909v-3.813c6.592-1.417,9.551-2.61,16.037,0,0.677-6.749,2.21-5.787,3.563-11.437l5.346-1.906v-1.906h5.345v-1.906l14.255,1.906v3.812h3.563v3.813c2.356-1.283,4.207-5.67,8.909-3.813l3.564,5.719,42.764,1.906v7.625c-17.6-.551-43.517-5.2-60.582,0H339.1v1.906h-7.128v1.906h-8.909v1.906H319.5v1.906h-7.128v1.906h-3.563v1.907l-14.255,1.906-3.564,5.718h-3.563v1.906h-3.564v1.906H280.3v1.907h-3.564l-1.782,3.812-7.127,1.906-3.564,5.719-5.345,1.906v1.906h5.345c3.658-4.422,8.9-4.822,14.255-7.625V320.8h5.345V318.9l7.127-1.906v-1.906h5.346c21.143-9.864,45.887-15.248,76.618-15.25h28.509v1.907l24.946,1.906q2.671,8.577,5.345,17.155h-1.782c-6.411,7.553-12.746.005-21.382,3.812q-0.889,1.907-1.781,3.813H390.774l-1.782,3.812H372.956l-1.782,3.812h-19.6l-1.782,3.813H333.756l-1.782,3.812h-19.6l-1.782,3.812H294.556l-1.782,3.813H276.738l-1.782,3.812h-19.6l-1.782,3.812H242.883q-0.891-1.905-1.781-3.812H221.5q-0.89-1.907-1.781-3.812H203.683L201.9,347.49H185.865l-1.782-3.812H168.047v-1.906H162.7v-1.906H146.665l-1.782-3.813H128.847l-1.782-3.812H111.029l-1.782-3.812h-19.6l-1.782-3.813H73.611V322.71L68.265,320.8a58.626,58.626,0,0,0,3.564-15.249c8.55-.952,17.931-3.576,24.945-5.719,8.471-2.588,45.539-.012,51.673,1.907h10.691v1.906h5.345v1.906h14.255v1.906h7.127v1.906l12.473,1.906v1.906H201.9v1.907h5.346v1.906h3.564V318.9h7.127V320.8H221.5c5.615,3.071,7.643,6.538,16.037,7.625v-1.906c-2.229-1.269-2.455-3.023-3.564-3.813h-3.563l-1.782-3.812h-3.564l-1.782-3.812-7.127-1.907v-1.906h-3.564v-1.906L201.9,305.555v-1.906h-5.345v-1.906h-3.564v-1.907h-7.127V297.93H182.3v-1.906h-7.127v-1.906h-7.127v-1.906h-8.909v-1.906H148.447V288.4H94.992v1.907H84.3v-7.625H94.992v-1.906h40.982c1.354-6.47,3.814-8.81,10.691-9.531,3.282,4.084,5.519,6.069,10.691,3.812V273.15h3.564v-1.906c7.655-2.807,12.73,2.711,17.818,3.812,2.262,5.388,4.589,7.877,5.345,15.25,6.937-1.419,10.371-3.646,19.6-3.813,1.949,3.961,2.87,3.376,3.564,9.531l10.691,1.906c4.341-6.541,9.981-3.388,12.473-13.343-5.215-1.3-5.835-2.121-7.128-7.625l5.346-3.812c-0.131-2.256-3.6-6.8-1.782-11.437l3.564-1.906v-7.625h1.781c2.03-2.17.007-.759,3.564-1.906-0.429-20.917-2.095-62.721,7.127-72.434v-1.906h8.909v1.906h1.782l1.782,11.437h1.782Q258.029,214.056,258.92,238.839Z"/>
  <path id="Line_2" data-name="Line 2" class="cls-5" d="M67.48,324.445l1.041-4.89,188,40-1.04,4.89Z"/>
  <path id="Line_3" data-name="Line 3" class="cls-5" d="M433.522,320.546l0.956,4.908-195,38-0.956-4.908Z"/>
  <path id="Ship_1" data-name="Ship 1" class="cls-1" d="M246.631,29.853s-2.1.348-1.737,1.554,0,12.43,0,12.43l-1.738,1.554-1.737,1.554L239.681,48.5l-1.737,1.554-3.475,3.107-1.738,1.554h0l-1.737,1.554V57.82l-1.738,1.554-1.737,3.107V68.7h-1.738v12.43l-1.737,1.554v37.289l-1.738,1.553-1.737,3.108-1.737,1.553-1.738,3.108-1.737,3.107-1.738,1.554-1.737,3.107v3.108h-1.738v-6.215l-1.737-1.554h-1.738l-1.737,1.554v35.735h3.475l1.737-1.554v-4.661h26.062l1.738,1.554,1.737,1.553v1.554l1.738,1.554h13.9v-1.554l1.737-1.554,1.738-1.553v-1.554h26.062v4.661l1.737,1.554h3.475V132.4h-3.475v1.554h-1.737v4.661l-1.738-1.554-1.737-1.554-1.738-3.107-1.737-3.107-3.475-4.661-1.737-3.108-1.738-1.553V90.447l-1.737-1.554V65.588h-1.738V60.927s-8.959-9.332-8.687-9.322-7.493-7.244-8.688-6.215,0-12.429,0-12.429,0.76-4.768-1.737-3.107S246.631,29.853,246.631,29.853Z"/>
  <path id="RightWing2_1" data-name="RightWing2 1" class="cls-5" d="M267.523,111.463v7.51l-1.879,1.877v9.388s-1.929,3.252-1.878,3.755,0,5.633,0,5.633h-1.878v7.51H260.01v5.633h-1.879V158.4l-1.878,1.877v1.878h-1.878v1.877h30.053v5.633h1.878v1.878h3.756V126.483h-3.756v1.878h-1.878v5.632s-1.461-2.263-1.879-1.877-1.878-3.755-1.878-3.755l-1.878-3.755-1.879-1.878-1.878-3.755-1.878-3.755-1.879-1.878v-1.877h-3.756Z"/>
  <path id="LeftWing" class="cls-5" d="M227.477,111.463v7.51l1.878,1.877v9.388s1.93,3.252,1.879,3.755,0,5.633,0,5.633h1.878v7.51h1.878v5.633h1.879V158.4l1.878,1.877v1.878h1.878v1.877H210.572v5.633h-1.878v1.878h-3.757V126.483h3.757v1.878h1.878v5.632s1.46-2.263,1.879-1.877,1.878-3.755,1.878-3.755l1.878-3.755,1.879-1.878,1.878-3.755,1.878-3.755,1.879-1.878v-1.877h3.756Z"/>
  <path id="Ellipse_2_copy" data-name="Ellipse 2 copy" class="cls-1" d="M260.366,86.92c-8.051-.045-17.011,18.363-20.394,41-3.514,22.6.589,40.989,9.634,41.183,9.143,0.218,16.489-18.736,19.568-40.61C272.534,106.758,268.427,86.892,260.366,86.92Z"/>
  <path id="Ellipse_2_copy_2" data-name="Ellipse 2 copy 2" class="cls-1" d="M241.326,128.558c3.6,0.426,6.585,9.148,6.843,19.452,0.318,10.293-2.534,18.282-6.586,17.868-4.1-.409-6.33-9.285-6.5-19.229C234.791,136.749,237.726,128.1,241.326,128.558Z"/>
  <path class="cls-1" d="M227.07,106.558c3.217,1,7.575,15.645,11.271,30.07,3.224,14.593,2.853,26.182,0,27.529-2.125,1.465-8.513-11.026-12.053-26.73C223.167,122.886,222.286,105.52,227.07,106.558Z"/>
  <path class="cls-1" d="M241.141,162.322h13.718c1.964,0,2.889,1.531,2.82,3.448,0,0.142,0,.284,0,0.427,0.069,1.914-.856,3.423-2.82,3.424H241.141a3.437,3.437,0,0,1-3.438-3.437v-0.425A3.437,3.437,0,0,1,241.141,162.322Z"/>
  <path class="cls-5" d="M249.2,117.74a1.8,1.8,0,0,1,1.8,1.8V151.27a1.8,1.8,0,1,1-3.6,0V119.542A1.8,1.8,0,0,1,249.2,117.74Z"/>
  <path id="Line_4" data-name="Line 4" class="cls-1" d="M270.344,93.75h-6.508V66.417h6.508V93.75Z"/>
  <circle class="cls-6" cx="248.125" cy="85.188" r="9.406"/>
  <path id="Line_5" data-name="Line 5" class="cls-1" d="M229,84h-5l-0.281-16.5h5Z"/>
  <rect class="cls-6" x="223.25" y="62" width="48.969" height="5.5" rx="2.75" ry="2.75"/>
  <path id="Dome_1" data-name="Dome 1" class="cls-7" d="M224.459,62V55.239h1.928V51.858h1.928V48.478h1.928v-1.69h1.928V45.1H234.1V41.716h1.927v-1.69h1.928v-1.69h3.856v-1.69h1.928V21.433s2.018,0.023,1.928,0a10.482,10.482,0,0,1,0-1.69h3.856v16.9h3.855v1.69h1.928v1.69h1.928v1.69h1.928s-0.053,1.687,0,1.69,1.928,0,1.928,0V45.1h1.928v1.69h1.928v3.381h1.928v3.381H268.8v5.071h1.928V62H224.459Z"/>
  <ellipse class="cls-8" cx="190.5" cy="242" rx="3.5" ry="3"/>
  <circle class="cls-8" cx="330" cy="186" r="4"/>
  <ellipse class="cls-8" cx="344.5" cy="243" rx="4.5" ry="5"/>
  <circle class="cls-8" cx="126" cy="199" r="3"/>
  <ellipse class="cls-8" cx="209" cy="191" rx="3" ry="4"/>
  <circle class="cls-9" cx="162" cy="136" r="4"/>
  <circle class="cls-9" cx="155" cy="243" r="3"/>
  <ellipse class="cls-9" cx="301" cy="219.5" rx="3" ry="3.5"/>
  <ellipse class="cls-9" cx="325" cy="132.5" rx="5" ry="5.5"/>
  <circle class="cls-9" cx="357" cy="211" r="4"/>
  <ellipse class="cls-9" cx="170.5" cy="180" rx="2.5" ry="3"/>
  <ellipse class="cls-8" cx="145" cy="276.5" rx="7" ry="5.5"/>
  <path class="cls-1" d="M169.056,269.409c7.655,1.089,13.388,5.3,12.8,9.4s-7.261,6.543-14.916,5.454-13.388-5.3-12.8-9.4S161.4,268.32,169.056,269.409Z"/>
  <ellipse class="cls-8" cx="201.5" cy="291.5" rx="7.5" ry="5.5"/>
  <ellipse class="cls-8" cx="228.5" cy="280" rx="5.5" ry="6"/>
  <ellipse class="cls-8" cx="230" cy="268.5" rx="5" ry="7.5"/>
  <path class="cls-1" d="M236.863,248.277c1.682,0.951,1.723,4.061.092,6.945s-4.319,4.451-6,3.5-1.724-4.062-.092-6.946S235.18,247.325,236.863,248.277Z"/>
  <path class="cls-1" d="M257.747,240.086c2.9-1.609,7.31.8,9.858,5.391s2.265,9.609-.631,11.218-7.311-.8-9.859-5.391S254.85,241.7,257.747,240.086Z"/>
  <ellipse class="cls-8" cx="269" cy="258.5" rx="3" ry="4.5"/>
  <ellipse class="cls-8" cx="268" cy="277" rx="4" ry="6"/>
  <path class="cls-1" d="M370.905,275.083c3.522,1.6,5.822,4.113,5.138,5.622s-4.093,1.439-7.614-.157-5.822-4.113-5.138-5.622S367.384,273.487,370.905,275.083Z"/>
  <path class="cls-1" d="M274.2,287.616c1.095-1.594,4.448-1.372,7.49.5s4.619,4.672,3.524,6.265-4.448,1.371-7.489-.5S273.106,289.209,274.2,287.616Z"/>
  <path class="cls-1" d="M318.8,283.465c7.165-.417,13.122,1.786,13.3,4.921s-5.479,6.015-12.645,6.432-13.122-1.786-13.305-4.921S311.631,283.882,318.8,283.465Z"/>
  <path class="cls-1" d="M347.833,268.734c10.172-.129,18.548,4.019,18.709,9.266s-7.954,9.605-18.125,9.734-18.548-4.019-18.709-9.265S337.662,268.864,347.833,268.734Z"/>
  <path id="Line_6_copy_2" data-name="Line 6 copy 2" class="cls-10" d="M248.88,361.792l0.192-1.253L54.649,322l-0.191,1.253Z"/>
  <path class="cls-5" d="M444.725,317.281c5.468-.78,10.559,2.209,11.371,6.676s-2.961,8.721-8.428,9.5-10.559-2.208-11.371-6.675S439.258,318.061,444.725,317.281Z"/>
  <path class="cls-5" d="M446.5,316.87c2.5-.227,4.644.845,4.784,2.394s-1.774,2.988-4.276,3.215-4.644-.844-4.784-2.393S443.994,317.1,446.5,316.87Z"/>
  <path id="Line_7" data-name="Line 7" class="cls-11" d="M277.1,364.49l-0.2-.98,165-33,0.2,0.98Z"/>
  <path id="Line_8" data-name="Line 8" class="cls-12" d="M256.1,357.491l-0.194-.982,177-35,0.194,0.982Z"/>
  <path id="Line_9" data-name="Line 9" class="cls-13" d="M252.1,356.509l-0.19.982-196-38,0.19-.982Z"/>
</svg>
